<svg xmlns="http://www.w3.org/2000/svg" viewBox="0 0 80 80">
  <clipPath id="clip"><rect width="80" height="80" rx="12"/></clipPath>
  <g clip-path="url(#clip)">
    <rect width="80" height="80" fill="#050f05"/>
    <rect width="80" height="80" fill="none" stroke="#00ff41" stroke-width="0.4" opacity="0.3"/>
    <rect x="0" y="0" width="80" height="1" fill="#00ff41" opacity="0.08"/><rect x="0" y="4" width="80" height="1" fill="#00ff41" opacity="0.08"/><rect x="0" y="8" width="80" height="1" fill="#00ff41" opacity="0.08"/><rect x="0" y="12" width="80" height="1" fill="#00ff41" opacity="0.08"/><rect x="0" y="16" width="80" height="1" fill="#00ff41" opacity="0.08"/><rect x="0" y="20" width="80" height="1" fill="#00ff41" opacity="0.08"/><rect x="0" y="24" width="80" height="1" fill="#00ff41" opacity="0.08"/><rect x="0" y="28" width="80" height="1" fill="#00ff41" opacity="0.08"/><rect x="0" y="32" width="80" height="1" fill="#00ff41" opacity="0.08"/><rect x="0" y="36" width="80" height="1" fill="#00ff41" opacity="0.08"/><rect x="0" y="40" width="80" height="1" fill="#00ff41" opacity="0.08"/><rect x="0" y="44" width="80" height="1" fill="#00ff41" opacity="0.08"/><rect x="0" y="48" width="80" height="1" fill="#00ff41" opacity="0.08"/><rect x="0" y="52" width="80" height="1" fill="#00ff41" opacity="0.08"/><rect x="0" y="56" width="80" height="1" fill="#00ff41" opacity="0.08"/><rect x="0" y="60" width="80" height="1" fill="#00ff41" opacity="0.08"/><rect x="0" y="64" width="80" height="1" fill="#00ff41" opacity="0.08"/><rect x="0" y="68" width="80" height="1" fill="#00ff41" opacity="0.08"/><rect x="0" y="72" width="80" height="1" fill="#00ff41" opacity="0.08"/><rect x="0" y="76" width="80" height="1" fill="#00ff41" opacity="0.08"/>
    <ellipse cx="40" cy="38" rx="17" ry="21" fill="#003300" opacity="0.9"/>
    <ellipse cx="40" cy="38" rx="17" ry="21" fill="none" stroke="#00ff41" stroke-width="1.5" opacity="0.9"/>
    <ellipse cx="40" cy="22" rx="20" ry="12" fill="#002200" opacity="0.9"/>
    <ellipse cx="40" cy="22" rx="20" ry="12" fill="none" stroke="#00ff41" stroke-width="1" opacity="0.7"/>
    <ellipse cx="33" cy="36" rx="4" ry="4.5" fill="#00ff41" opacity="0.9"/>
    <ellipse cx="47" cy="36" rx="4" ry="4.5" fill="#00ff41" opacity="0.9"/>
    <path d="M36 44 Q40 48 44 44" stroke="#00ff41" stroke-width="1.5" fill="none"/>
    <text x="2" y="8" font-family="monospace" font-size="5" fill="#00ff41" opacity="0.8">CAM01</text>
    <text x="2" y="77" font-family="monospace" font-size="5" fill="#00ff41" opacity="0.8">REC●</text>
    <rect x="55" y="3" width="22" height="7" rx="2" fill="#00ff41" opacity="0.15"/>
    <text x="57" y="9" font-family="monospace" font-size="5" fill="#00ff41" opacity="0.9">LIVE</text>
  </g>
</svg>