<svg xmlns="http://www.w3.org/2000/svg" viewBox="0 0 80 80">
  <clipPath id="clip"><rect width="80" height="80" rx="12"/></clipPath>
  <g clip-path="url(#clip)">
    <rect width="80" height="80" fill="#f5f0e8"/>
    <polygon points="0,0 45,0 20,35 0,30" fill="#ff6b6b" opacity="0.85"/>
    <polygon points="35,0 80,0 80,25 50,40" fill="#ffd93d" opacity="0.85"/>
    <polygon points="0,30 25,35 15,65 0,60" fill="#6bcb77" opacity="0.85"/>
    <polygon points="55,35 80,20 80,55 60,60" fill="#4d96ff" opacity="0.85"/>
    <polygon points="20,60 60,55 65,80 15,80" fill="#ff922b" opacity="0.85"/>
    <polygon points="25,30 55,28 58,58 22,60" fill="#fde8c8" opacity="0.9"/>
    <ellipse cx="40" cy="38" rx="16" ry="20" fill="#fde0c0"/>
    <ellipse cx="40" cy="22" rx="18" ry="11" fill="#c0874a"/>
    <ellipse cx="33" cy="36" rx="3" ry="3.5" fill="#3a2a10"/>
    <ellipse cx="47" cy="36" rx="3" ry="3.5" fill="#3a2a10"/>
    <ellipse cx="30" cy="42" rx="5" ry="3" fill="#ff7eb3" opacity="0.4"/>
    <ellipse cx="50" cy="42" rx="5" ry="3" fill="#ff7eb3" opacity="0.4"/>
    <path d="M36 44 Q40 47 44 44" stroke="#3a2a10" stroke-width="1.5" fill="none" stroke-linecap="round"/>
  </g>
</svg>