<svg xmlns="http://www.w3.org/2000/svg" viewBox="0 0 80 80">
  <defs>
    <radialGradient id="bgel" cx="50%" cy="40%" r="70%">
      <stop offset="0%" stop-color="#2d0a4e"/>
      <stop offset="100%" stop-color="#0a0015"/>
    </radialGradient>
    <clipPath id="clip"><rect width="80" height="80" rx="12"/></clipPath>
  </defs>
  <g clip-path="url(#clip)">
    <rect width="80" height="80" fill="url(#bgel)"/>
    <path d="M40 5 L43 18 L56 18 L46 26 L50 39 L40 31 L30 39 L34 26 L24 18 L37 18Z" fill="#7c3aed" opacity="0.5"/>
    <circle cx="40" cy="35" r="22" fill="#1a0530" opacity="0.8"/>
    <ellipse cx="40" cy="35" rx="17" ry="20" fill="#2a0a45" opacity="0.9"/>
    <ellipse cx="40" cy="22" rx="18" ry="11" fill="#150828"/>
    <ellipse cx="33" cy="33" rx="4" ry="4.5" fill="#a78bfa"/>
    <ellipse cx="47" cy="33" rx="4" ry="4.5" fill="#a78bfa"/>
    <ellipse cx="33" cy="32" rx="1.5" ry="2" fill="#fff" opacity="0.8"/>
    <ellipse cx="47" cy="32" rx="1.5" ry="2" fill="#fff" opacity="0.8"/>
    <path d="M30 10 Q40 5 50 10" stroke="#7c3aed" stroke-width="1" fill="none" opacity="0.6"/>
    <path d="M20 55 Q40 48 60 55" stroke="#7c3aed" stroke-width="1.5" fill="none" opacity="0.5"/>
    <circle cx="8" cy="20" r="1" fill="#a78bfa" opacity="0.7"/><circle cx="72" cy="15" r="1" fill="#a78bfa" opacity="0.8"/><circle cx="5" cy="65" r="1" fill="#a78bfa" opacity="0.6"/><circle cx="75" cy="70" r="1" fill="#a78bfa" opacity="0.7"/><circle cx="15" cy="72" r="1" fill="#a78bfa" opacity="0.5"/>
  </g>
</svg>