<svg xmlns="http://www.w3.org/2000/svg" viewBox="0 0 80 80">
  <defs>
    <radialGradient id="bg" cx="50%" cy="35%" r="70%">
      <stop offset="0%" stop-color="#e8d5c4"/>
      <stop offset="100%" stop-color="#b8a090"/>
    </radialGradient>
    <clipPath id="clip"><rect width="80" height="80" rx="12"/></clipPath>
  </defs>
  <g clip-path="url(#clip)">
    <rect width="80" height="80" fill="url(#bg)"/>
    
        <circle cx="10" cy="15" r="8" fill="#d4c4b0" opacity="0.6"/>
        <circle cx="70" cy="70" r="10" fill="#c4b4a0" opacity="0.5"/>
        <path d="M60 5 Q65 0 70 5 Q75 10 70 15 Q65 20 60 15 Q55 10 60 5Z" fill="#e8c8a8" opacity="0.7"/>
        <path d="M5 55 Q10 50 15 55 Q20 60 15 65 Q10 70 5 65 Q0 60 5 55Z" fill="#d8c4b0" opacity="0.6"/>
        <path d="M35 70 Q40 68 45 70" stroke="#c4845a" stroke-width="2" fill="none" opacity="0.5"/>
        
    <path d="M21 25 Q21 52 28 58 Q40 62 52 58 Q59 52 59 25 Q40 10 21 25Z" fill="#c4845a"/>
    <ellipse cx="40" cy="38" rx="17" ry="21" fill="#fde8d0"/>
    <ellipse cx="33" cy="36" rx="3" ry="3.5" fill="#5a3a2a"/>
    <ellipse cx="47" cy="36" rx="3" ry="3.5" fill="#5a3a2a"/>
    <ellipse cx="33.5" cy="35" rx="1.2" ry="1.5" fill="#fff" opacity="0.6"/>
    <ellipse cx="47.5" cy="35" rx="1.2" ry="1.5" fill="#fff" opacity="0.6"/>
    <path d="M36 44 Q40 47 44 44" stroke="#5a3a2a" stroke-width="1.5" fill="none" stroke-linecap="round"/>
    
        <ellipse cx="30" cy="42" rx="6" ry="4" fill="#ffb5a0" opacity="0.45"/>
        <ellipse cx="50" cy="42" rx="6" ry="4" fill="#ffb5a0" opacity="0.45"/>
    <ellipse cx="40" cy="68" rx="20" ry="14" fill="#fde8d0" opacity="0.6"/>
    
  </g>
</svg>